<svg width="9" height="9" viewBox="0 0 9 9" fill="none" xmlns="http://www.w3.org/2000/svg">
<path d="M5.55651 4.49874L8.77841 1.28433C8.9195 1.14324 8.99877 0.95188 8.99877 0.752346C8.99877 0.552811 8.9195 0.361449 8.77841 0.220357C8.63732 0.0792648 8.44596 0 8.24642 0C8.04689 0 7.85553 0.0792648 7.71443 0.220357L4.50002 3.44226L1.28561 0.220357C1.14452 0.0792648 0.953159 -1.48665e-09 0.753624 0C0.55409 1.48665e-09 0.362728 0.0792648 0.221636 0.220357C0.0805435 0.361449 0.00127872 0.552811 0.00127872 0.752346C0.00127872 0.95188 0.0805435 1.14324 0.221636 1.28433L3.44354 4.49874L0.221636 7.71316C0.151407 7.78281 0.0956649 7.86568 0.057625 7.95699C0.019585 8.04829 0 8.14623 0 8.24514C0 8.34406 0.019585 8.44199 0.057625 8.5333C0.0956649 8.62461 0.151407 8.70748 0.221636 8.77713C0.291291 8.84736 0.374162 8.9031 0.465469 8.94114C0.556775 8.97918 0.65471 8.99877 0.753624 8.99877C0.852538 8.99877 0.950473 8.97918 1.04178 8.94114C1.13309 8.9031 1.21596 8.84736 1.28561 8.77713L4.50002 5.55523L7.71443 8.77713C7.78409 8.84736 7.86696 8.9031 7.95827 8.94114C8.04957 8.97918 8.14751 8.99877 8.24642 8.99877C8.34534 8.99877 8.44327 8.97918 8.53458 8.94114C8.62588 8.9031 8.70875 8.84736 8.77841 8.77713C8.84864 8.70748 8.90438 8.62461 8.94242 8.5333C8.98046 8.44199 9.00005 8.34406 9.00005 8.24514C9.00005 8.14623 8.98046 8.04829 8.94242 7.95699C8.90438 7.86568 8.84864 7.78281 8.77841 7.71316L5.55651 4.49874Z" fill="#6F7B8E"/>
</svg>
