<svg width="17" height="19" viewBox="0 0 17 19" fill="none" xmlns="http://www.w3.org/2000/svg">
<path d="M8.50002 15.3C8.66814 15.3 8.83248 15.2502 8.97226 15.1568C9.11204 15.0634 9.22099 14.9306 9.28532 14.7753C9.34966 14.62 9.36649 14.4491 9.33369 14.2842C9.30089 14.1193 9.21994 13.9679 9.10106 13.849C8.98219 13.7301 8.83073 13.6492 8.66585 13.6164C8.50096 13.5836 8.33006 13.6004 8.17474 13.6647C8.01942 13.7291 7.88667 13.838 7.79327 13.9778C7.69987 14.1176 7.65002 14.2819 7.65002 14.45C7.65002 14.6755 7.73957 14.8917 7.89898 15.0511C8.05839 15.2105 8.27459 15.3 8.50002 15.3ZM12.75 15.3C12.9181 15.3 13.0825 15.2502 13.2223 15.1568C13.3621 15.0634 13.471 14.9306 13.5353 14.7753C13.5997 14.62 13.6165 14.4491 13.5837 14.2842C13.5509 14.1193 13.4699 13.9679 13.3511 13.849C13.2322 13.7301 13.0807 13.6492 12.9159 13.6164C12.751 13.5836 12.5801 13.6004 12.4248 13.6647C12.2694 13.7291 12.1367 13.838 12.0433 13.9778C11.9499 14.1176 11.9 14.2819 11.9 14.45C11.9 14.6755 11.9896 14.8917 12.149 15.0511C12.3084 15.2105 12.5246 15.3 12.75 15.3ZM12.75 11.9C12.9181 11.9 13.0825 11.8502 13.2223 11.7568C13.3621 11.6634 13.471 11.5306 13.5353 11.3753C13.5997 11.22 13.6165 11.0491 13.5837 10.8842C13.5509 10.7193 13.4699 10.5679 13.3511 10.449C13.2322 10.3301 13.0807 10.2492 12.9159 10.2164C12.751 10.1836 12.5801 10.2004 12.4248 10.2647C12.2694 10.3291 12.1367 10.438 12.0433 10.5778C11.9499 10.7176 11.9 10.8819 11.9 11.05C11.9 11.2755 11.9896 11.4917 12.149 11.6511C12.3084 11.8105 12.5246 11.9 12.75 11.9ZM8.50002 11.9C8.66814 11.9 8.83248 11.8502 8.97226 11.7568C9.11204 11.6634 9.22099 11.5306 9.28532 11.3753C9.34966 11.22 9.36649 11.0491 9.33369 10.8842C9.30089 10.7193 9.21994 10.5679 9.10106 10.449C8.98219 10.3301 8.83073 10.2492 8.66585 10.2164C8.50096 10.1836 8.33006 10.2004 8.17474 10.2647C8.01942 10.3291 7.88667 10.438 7.79327 10.5778C7.69987 10.7176 7.65002 10.8819 7.65002 11.05C7.65002 11.2755 7.73957 11.4917 7.89898 11.6511C8.05839 11.8105 8.27459 11.9 8.50002 11.9ZM14.45 1.7H13.6V0.850002C13.6 0.624567 13.5105 0.408366 13.3511 0.24896C13.1917 0.0895535 12.9755 0 12.75 0C12.5246 0 12.3084 0.0895535 12.149 0.24896C11.9896 0.408366 11.9 0.624567 11.9 0.850002V1.7H5.10001V0.850002C5.10001 0.624567 5.01046 0.408366 4.85105 0.24896C4.69165 0.0895535 4.47545 0 4.25001 0C4.02458 0 3.80837 0.0895535 3.64897 0.24896C3.48956 0.408366 3.40001 0.624567 3.40001 0.850002V1.7H2.55001C1.8737 1.7 1.2251 1.96866 0.74688 2.44688C0.268661 2.9251 0 3.57371 0 4.25001V16.15C0 16.8263 0.268661 17.4749 0.74688 17.9532C1.2251 18.4314 1.8737 18.7 2.55001 18.7H14.45C15.1263 18.7 15.7749 18.4314 16.2532 17.9532C16.7314 17.4749 17 16.8263 17 16.15V4.25001C17 3.57371 16.7314 2.9251 16.2532 2.44688C15.7749 1.96866 15.1263 1.7 14.45 1.7ZM15.3 16.15C15.3 16.3755 15.2105 16.5917 15.0511 16.7511C14.8917 16.9105 14.6755 17 14.45 17H2.55001C2.32457 17 2.10837 16.9105 1.94896 16.7511C1.78956 16.5917 1.7 16.3755 1.7 16.15V8.50002H15.3V16.15ZM15.3 6.80002H1.7V4.25001C1.7 4.02458 1.78956 3.80837 1.94896 3.64897C2.10837 3.48956 2.32457 3.40001 2.55001 3.40001H3.40001V4.25001C3.40001 4.47544 3.48956 4.69165 3.64897 4.85105C3.80837 5.01046 4.02458 5.10001 4.25001 5.10001C4.47545 5.10001 4.69165 5.01046 4.85105 4.85105C5.01046 4.69165 5.10001 4.47544 5.10001 4.25001V3.40001H11.9V4.25001C11.9 4.47544 11.9896 4.69165 12.149 4.85105C12.3084 5.01046 12.5246 5.10001 12.75 5.10001C12.9755 5.10001 13.1917 5.01046 13.3511 4.85105C13.5105 4.69165 13.6 4.47544 13.6 4.25001V3.40001H14.45C14.6755 3.40001 14.8917 3.48956 15.0511 3.64897C15.2105 3.80837 15.3 4.02458 15.3 4.25001V6.80002ZM4.25001 11.9C4.41813 11.9 4.58246 11.8502 4.72225 11.7568C4.86203 11.6634 4.97098 11.5306 5.03531 11.3753C5.09964 11.22 5.11648 11.0491 5.08368 10.8842C5.05088 10.7193 4.96993 10.5679 4.85105 10.449C4.73218 10.3301 4.58072 10.2492 4.41584 10.2164C4.25095 10.1836 4.08005 10.2004 3.92473 10.2647C3.76941 10.3291 3.63666 10.438 3.54326 10.5778C3.44986 10.7176 3.40001 10.8819 3.40001 11.05C3.40001 11.2755 3.48956 11.4917 3.64897 11.6511C3.80837 11.8105 4.02458 11.9 4.25001 11.9ZM4.25001 15.3C4.41813 15.3 4.58246 15.2502 4.72225 15.1568C4.86203 15.0634 4.97098 14.9306 5.03531 14.7753C5.09964 14.62 5.11648 14.4491 5.08368 14.2842C5.05088 14.1193 4.96993 13.9679 4.85105 13.849C4.73218 13.7301 4.58072 13.6492 4.41584 13.6164C4.25095 13.5836 4.08005 13.6004 3.92473 13.6647C3.76941 13.7291 3.63666 13.838 3.54326 13.9778C3.44986 14.1176 3.40001 14.2819 3.40001 14.45C3.40001 14.6755 3.48956 14.8917 3.64897 15.0511C3.80837 15.2105 4.02458 15.3 4.25001 15.3Z" fill="#6F7B8E"/>
</svg>
