<svg width="27" height="14" viewBox="0 0 27 14" fill="none" xmlns="http://www.w3.org/2000/svg">
<path d="M10.8 10.8H6.75C4.455 10.8 2.7 9.04499 2.7 6.74999C2.7 4.455 4.455 2.7 6.75 2.7H10.8C11.61 2.7 12.15 2.16 12.15 1.35C12.15 0.539999 11.61 0 10.8 0H6.75C2.97 0 0 2.97 0 6.74999C0 10.53 2.97 13.5 6.75 13.5H10.8C11.61 13.5 12.15 12.96 12.15 12.15C12.15 11.34 11.61 10.8 10.8 10.8ZM20.25 0H16.2C15.39 0 14.85 0.539999 14.85 1.35C14.85 2.16 15.39 2.7 16.2 2.7H20.25C22.545 2.7 24.3 4.455 24.3 6.74999C24.3 9.04499 22.545 10.8 20.25 10.8H16.2C15.39 10.8 14.85 11.34 14.85 12.15C14.85 12.96 15.39 13.5 16.2 13.5H20.25C24.03 13.5 27 10.53 27 6.74999C27 2.97 24.03 0 20.25 0ZM8.09999 6.74999C8.09999 7.55999 8.63999 8.09999 9.44999 8.09999H17.55C18.36 8.09999 18.9 7.55999 18.9 6.74999C18.9 5.94 18.36 5.4 17.55 5.4H9.44999C8.63999 5.4 8.09999 5.94 8.09999 6.74999Z" fill="#173F7C"/>
</svg>
