<svg width="27" height="27" viewBox="0 0 27 27" fill="none" xmlns="http://www.w3.org/2000/svg">
<path d="M2.19374 20.9249V21.4312H2.69999H4.72499C5.01494 21.4312 5.21723 21.5256 5.34576 21.6542C5.47429 21.7827 5.56873 21.985 5.56873 22.2749C5.56873 22.5649 5.47429 22.7672 5.34576 22.8957C5.21723 23.0242 5.01494 23.1187 4.72499 23.1187H1.35C1.06004 23.1187 0.857751 23.0242 0.729221 22.8957C0.600691 22.7672 0.506248 22.5649 0.506248 22.2749V4.72499C0.506248 4.43503 0.600691 4.23274 0.729221 4.10421C0.857751 3.97568 1.06004 3.88124 1.35 3.88124H13.23H14.4522L13.5879 3.01702L12.5079 1.93702C12.1656 1.59473 12.1656 1.10527 12.5079 0.762971C12.8502 0.420674 13.3397 0.420674 13.682 0.762971L17.057 4.13796C17.3993 4.48026 17.3993 4.96971 17.057 5.31201L13.682 8.687C13.5769 8.79211 13.4919 8.85082 13.4125 8.88611C13.3353 8.92042 13.2384 8.94372 13.095 8.94372C12.805 8.94372 12.6027 8.84928 12.4742 8.72075C12.3457 8.59222 12.2512 8.38993 12.2512 8.09998C12.2512 7.95655 12.2745 7.85966 12.3088 7.78246C12.3441 7.70306 12.4028 7.61806 12.5079 7.51295L13.5879 6.43295L14.4522 5.56873H13.23H2.69999H2.19374V6.07498V20.9249ZM24.8062 6.07498V5.56873H24.2999H22.2749C21.985 5.56873 21.7827 5.47429 21.6542 5.34576C21.5256 5.21723 21.4312 5.01494 21.4312 4.72499C21.4312 4.43503 21.5256 4.23274 21.6542 4.10421C21.7827 3.97568 21.985 3.88124 22.2749 3.88124H25.6499C25.9399 3.88124 26.1422 3.97568 26.2707 4.10421C26.3992 4.23274 26.4937 4.43503 26.4937 4.72499V22.2749C26.4937 22.5649 26.3992 22.7672 26.2707 22.8957C26.1422 23.0242 25.9399 23.1187 25.6499 23.1187H12.96H11.7378L12.602 23.9829L13.682 25.0629C14.0243 25.4052 14.0243 25.8947 13.682 26.2369C13.5769 26.3421 13.4919 26.4008 13.4125 26.4361C13.3353 26.4704 13.2384 26.4937 13.095 26.4937C12.9515 26.4937 12.8546 26.4704 12.7774 26.4361C12.698 26.4008 12.613 26.3421 12.5079 26.2369L9.13295 22.862C8.79065 22.5197 8.79065 22.0302 9.13295 21.6879L12.5079 18.3129C12.8502 17.9706 13.3397 17.9706 13.682 18.3129C14.0243 18.6552 14.0243 19.1447 13.682 19.487L12.602 20.567L11.7378 21.4312H12.96H24.2999H24.8062V20.9249V6.07498Z" fill="#6F7B8E" stroke="#6F7B8E"/>
</svg>
