<svg width="13" height="18" viewBox="0 0 13 18" fill="none" xmlns="http://www.w3.org/2000/svg">
<path d="M12 4H9.8C9.6 3.3 9.2 2.6 8.8 2H12C12.6 2 13 1.6 13 1C13 0.4 12.6 0 12 0H1C0.4 0 0 0.4 0 1C0 1.6 0.4 2 1 2H4.5C5.8 2 7.1 2.8 7.6 4H1C0.4 4 0 4.4 0 5C0 5.6 0.4 6 1 6H7.9C7.7 7.7 6.2 9 4.5 9H1H0.9C0.8 9 0.8 9 0.7 9C0.6 9 0.6 9.1 0.5 9.1C0.5 9.1 0.4 9.1 0.4 9.2C0.3 9.3 0.2 9.4 0.2 9.5C0.2 9.6 0.2 9.6 0.2 9.7C0.2 9.8 0.2 9.8 0.2 9.9V10C0.2 10.1 0.3 10.3 0.3 10.4C0.3 10.4 0.3 10.5 0.4 10.5L6.4 17.5C6.8 17.9 7.4 18 7.8 17.6C8.2 17.2 8.3 16.6 7.9 16.2L3.2 11H4.5C7.3 11 9.7 8.8 10 6H12C12.6 6 13 5.6 13 5C13 4.4 12.6 4 12 4Z" fill="#6F7B8E"/>
</svg>
