<svg width="360" height="24" viewBox="0 0 360 24" fill="none" xmlns="http://www.w3.org/2000/svg">
<path d="M12 12H124" stroke="#359766" stroke-width="4" stroke-linecap="round"/>
<path d="M187 12L348 12" stroke="#BEC4CC" stroke-width="4" stroke-linecap="round"/>
<path d="M124 12H187" stroke="#359766" stroke-width="4" stroke-linecap="round"/>
<circle cx="348" cy="12" r="11" fill="#F3F3F7" stroke="#359766" stroke-width="2"/>
<circle cx="12" cy="12" r="12" fill="white"/>
<path d="M12 0C5.4 0 0 5.4 0 12C0 18.6 5.4 24 12 24C18.6 24 24 18.6 24 12C24 5.4 18.6 0 12 0ZM17.04 9.96L11.28 15.72C10.8 16.2 10.08 16.2 9.6 15.72L6.96 13.08C6.48 12.6 6.48 11.88 6.96 11.4C7.44 10.92 8.16 10.92 8.64 11.4L10.44 13.2L15.36 8.28C15.84 7.8 16.56 7.8 17.04 8.28C17.52 8.76 17.52 9.48 17.04 9.96Z" fill="#359766"/>
<circle cx="193" cy="12" r="12" fill="white"/>
<path d="M193 0C186.4 0 181 5.4 181 12C181 18.6 186.4 24 193 24C199.6 24 205 18.6 205 12C205 5.4 199.6 0 193 0ZM198.04 9.96L192.28 15.72C191.8 16.2 191.08 16.2 190.6 15.72L187.96 13.08C187.48 12.6 187.48 11.88 187.96 11.4C188.44 10.92 189.16 10.92 189.64 11.4L191.44 13.2L196.36 8.28C196.84 7.8 197.56 7.8 198.04 8.28C198.52 8.76 198.52 9.48 198.04 9.96Z" fill="#359766"/>
</svg>
