<svg width="13" height="13" viewBox="0 0 13 13" fill="none" xmlns="http://www.w3.org/2000/svg">
<path d="M8.02603 6.49815L12.6799 1.85514C12.8837 1.65134 12.9982 1.37493 12.9982 1.08672C12.9982 0.798501 12.8837 0.52209 12.6799 0.318292C12.4761 0.114493 12.1997 0 11.9114 0C11.6232 0 11.3468 0.114493 11.143 0.318292L6.5 4.97213L1.85699 0.318292C1.65319 0.114493 1.37678 -2.14737e-09 1.08856 0C0.800348 2.14737e-09 0.523938 0.114493 0.320139 0.318292C0.11634 0.52209 0.00184703 0.798501 0.00184703 1.08672C0.00184703 1.37493 0.11634 1.65134 0.320139 1.85514L4.97397 6.49815L0.320139 11.1412C0.218698 11.2418 0.138182 11.3615 0.0832356 11.4934C0.0282893 11.6253 0 11.7667 0 11.9096C0 12.0525 0.0282893 12.1939 0.0832356 12.3258C0.138182 12.4577 0.218698 12.5774 0.320139 12.678C0.420751 12.7795 0.540454 12.86 0.67234 12.9149C0.804227 12.9699 0.945688 12.9982 1.08856 12.9982C1.23144 12.9982 1.3729 12.9699 1.50479 12.9149C1.63667 12.86 1.75637 12.7795 1.85699 12.678L6.5 8.02418L11.143 12.678C11.2436 12.7795 11.3633 12.86 11.4952 12.9149C11.6271 12.9699 11.7686 12.9982 11.9114 12.9982C12.0543 12.9982 12.1958 12.9699 12.3277 12.9149C12.4595 12.86 12.5792 12.7795 12.6799 12.678C12.7813 12.5774 12.8618 12.4577 12.9168 12.3258C12.9717 12.1939 13 12.0525 13 11.9096C13 11.7667 12.9717 11.6253 12.9168 11.4934C12.8618 11.3615 12.7813 11.2418 12.6799 11.1412L8.02603 6.49815Z" fill="#7B7A85"/>
</svg>
