<svg width="8" height="6" viewBox="0 0 8 6" fill="none" xmlns="http://www.w3.org/2000/svg">
<path d="M7.8167 0.168379C7.76378 0.115025 7.70083 0.0726774 7.63146 0.043778C7.56209 0.0148787 7.48769 0 7.41254 0C7.3374 0 7.263 0.0148787 7.19363 0.043778C7.12426 0.0726774 7.0613 0.115025 7.00839 0.168379L2.76758 4.41488L0.985872 2.62748C0.930929 2.5744 0.866069 2.53267 0.794997 2.50466C0.723925 2.47665 0.648032 2.46292 0.571652 2.46424C0.495272 2.46556 0.419899 2.48191 0.349839 2.51236C0.279778 2.54281 0.216401 2.58677 0.163326 2.64171C0.110252 2.69665 0.0685188 2.76151 0.0405102 2.83258C0.0125015 2.90366 -0.00123441 2.97955 8.70466e-05 3.05593C0.00140851 3.13231 0.0177614 3.20768 0.0482118 3.27774C0.0786622 3.3478 0.122614 3.41118 0.177557 3.46425L2.36342 5.65012C2.41634 5.70347 2.4793 5.74582 2.54867 5.77472C2.61803 5.80362 2.69243 5.8185 2.76758 5.8185C2.84273 5.8185 2.91713 5.80362 2.9865 5.77472C3.05586 5.74582 3.11882 5.70347 3.17174 5.65012L7.8167 1.00516C7.87448 0.951851 7.92059 0.887157 7.95213 0.815148C7.98367 0.74314 7.99996 0.66538 7.99996 0.586767C7.99996 0.508155 7.98367 0.430394 7.95213 0.358386C7.92059 0.286378 7.87448 0.221684 7.8167 0.168379Z" fill="white"/>
</svg>
