<svg width="17" height="17" viewBox="0 0 17 17" fill="none" xmlns="http://www.w3.org/2000/svg">
    <path d="M11.1334 9.03868L9.34996 8.00938V4.24998C9.34996 4.02455 9.2604 3.80835 9.101 3.64894C8.9416 3.48954 8.7254 3.39998 8.49996 3.39998C8.27453 3.39998 8.05833 3.48954 7.89892 3.64894C7.73952 3.80835 7.64997 4.02455 7.64997 4.24998V8.49996C7.64993 8.64919 7.68918 8.79581 7.76379 8.92506C7.83839 9.0543 7.94572 9.16163 8.07496 9.23623L10.2834 10.5112C10.3801 10.5671 10.4868 10.6034 10.5975 10.618C10.7083 10.6326 10.8208 10.6253 10.9286 10.5964C11.0365 10.5675 11.1376 10.5176 11.2263 10.4496C11.3149 10.3817 11.3892 10.2969 11.445 10.2002C11.5009 10.1034 11.5371 9.99667 11.5516 9.88595C11.5662 9.77522 11.5588 9.66272 11.5298 9.55485C11.5009 9.44699 11.451 9.34589 11.383 9.25732C11.3149 9.16876 11.2301 9.09446 11.1334 9.03868ZM8.49996 0C6.81883 0 5.17545 0.498514 3.77764 1.4325C2.37983 2.36649 1.29037 3.694 0.647025 5.24717C0.0036829 6.80033 -0.164645 8.50939 0.163328 10.1582C0.491301 11.807 1.30084 13.3216 2.48958 14.5103C3.67832 15.6991 5.19287 16.5086 6.8417 16.8366C8.49053 17.1646 10.1996 16.9962 11.7528 16.3529C13.3059 15.7096 14.6334 14.6201 15.5674 13.2223C16.5014 11.8245 16.9999 10.1811 16.9999 8.49996C16.9974 6.2464 16.1011 4.08586 14.5076 2.49235C12.9141 0.89884 10.7535 0.00250628 8.49996 0ZM8.49996 15.2999C7.15506 15.2999 5.84035 14.9011 4.7221 14.1539C3.60385 13.4067 2.73229 12.3447 2.21761 11.1022C1.70294 9.85966 1.56828 8.49242 1.83066 7.17335C2.09303 5.85429 2.74067 4.64265 3.69166 3.69166C4.64265 2.74066 5.85429 2.09303 7.17336 1.83065C8.49242 1.56827 9.85967 1.70294 11.1022 2.21761C12.3447 2.73228 13.4067 3.60385 14.1539 4.7221C14.9011 5.84035 15.2999 7.15505 15.2999 8.49996C15.2979 10.3028 14.5808 12.0312 13.306 13.306C12.0312 14.5808 10.3028 15.2979 8.49996 15.2999Z" fill="#6F7B8E"/>
</svg>