<svg width="16" height="17" viewBox="0 0 16 17" fill="none" xmlns="http://www.w3.org/2000/svg">
<path d="M14.6661 6.6749H4.54191L8.94374 2.28641C9.19491 2.03523 9.33602 1.69456 9.33602 1.33935C9.33602 0.984129 9.19491 0.643461 8.94374 0.392285C8.69256 0.141109 8.35189 0 7.99668 0C7.64146 0 7.30079 0.141109 7.04962 0.392285L0.380176 7.06172C0.258738 7.18858 0.163545 7.33817 0.10006 7.50191C-0.0333532 7.82666 -0.0333532 8.19091 0.10006 8.51566C0.163545 8.6794 0.258738 8.82899 0.380176 8.95585L7.04962 15.6253C7.17362 15.7503 7.32115 15.8495 7.48369 15.9173C7.64624 15.985 7.82059 16.0198 7.99668 16.0198C8.17277 16.0198 8.34711 15.985 8.50966 15.9173C8.67221 15.8495 8.81973 15.7503 8.94374 15.6253C9.06876 15.5013 9.16799 15.3538 9.23571 15.1912C9.30343 15.0287 9.3383 14.8543 9.3383 14.6782C9.3383 14.5021 9.30343 14.3278 9.23571 14.1652C9.16799 14.0027 9.06876 13.8552 8.94374 13.7312L4.54191 9.34267H14.6661C15.0199 9.34267 15.3592 9.20214 15.6093 8.95199C15.8595 8.70183 16 8.36255 16 8.00879C16 7.65502 15.8595 7.31574 15.6093 7.06558C15.3592 6.81543 15.0199 6.6749 14.6661 6.6749Z" fill="white"/>
</svg>
